Khula-ExtraBold copy.ufo
<glyph name="comma.deva" format="1">
  <advance width="679"/>
  <unicode hex="002C"/>
  <outline>
    <contour>
      <point x="477" y="269" type="line"/>
      <point x="490" y="248" type="line"/>
      <point x="431" y="19"/>
      <point x="378" y="-149"/>
      <point x="331" y="-257" type="curve"/>
      <point x="80" y="-257" type="line"/>
      <point x="97" y="-174"/>
      <point x="115" y="-81"/>
      <point x="132" y="22" type="curve" smooth="yes"/>
      <point x="150" y="125"/>
      <point x="162" y="207"/>
      <point x="169" y="269" type="curve"/>
    </contour>
  </outline>
</glyph>
<glyph name="uni02BC" format="1">
  <advance width="837"/>
  <unicode hex="02BC"/>
  <outline>
    <contour>
      <point x="707" y="1458" type="line"/>
      <point x="515" y="980" type="line"/>
      <point x="198" y="980" type="line"/>
      <point x="309" y="1490" type="line"/>
      <point x="682" y="1490" type="line"/>
    </contour>
  </outline>
</glyph>
<glyph name="rvocalicdeva" format="1">
  <advance width="1847"/>
  <unicode hex="090B"/>
  <outline>
    <contour>
      <point x="1121" y="1056" type="line"/>
      <point x="1121" y="1294" type="line"/>
      <point x="1877" y="1294" type="line"/>
      <point x="1877" y="1056" type="line"/>
    </contour>
    <contour>
      <point x="1032" y="773" type="line"/>
      <point x="1074" y="715"/>
      <point x="1120" y="691"/>
      <point x="1195" y="691" type="curve" smooth="yes"/>
      <point x="1249" y="691"/>
      <point x="1306" y="699"/>
      <point x="1397" y="733" type="curve"/>
      <point x="1285" y="644" type="line"/>
      <point x="1258" y="699"/>
      <point x="1240" y="742"/>
      <point x="1240" y="789" type="curve" smooth="yes"/>
      <point x="1240" y="858"/>
      <point x="1293" y="919"/>
      <point x="1415" y="919" type="curve" smooth="yes"/>
      <point x="1606" y="919"/>
      <point x="1760" y="814"/>
      <point x="1760" y="704" type="curve" smooth="yes"/>
      <point x="1760" y="529"/>
      <point x="1539" y="417"/>
      <point x="1227" y="417" type="curve" smooth="yes"/>
      <point x="1114" y="417"/>
      <point x="1004" y="440"/>
      <point x="902" y="499" type="curve"/>
    </contour>
    <contour>
      <point x="1345" y="516" type="curve"/>
      <point x="1597" y="635" type="line"/>
      <point x="1706" y="505"/>
      <point x="1758" y="403"/>
      <point x="1758" y="287" type="curve" smooth="yes"/>
      <point x="1758" y="147"/>
      <point x="1644" y="7"/>
      <point x="1415" y="-17" type="curve"/>
      <point x="1244" y="198" type="line"/>
      <point x="1387" y="230"/>
      <point x="1436" y="283"/>
      <point x="1436" y="348" type="curve" smooth="yes"/>
      <point x="1436" y="399"/>
      <point x="1410" y="450"/>
    </contour>
    <component base="taradeva"/>
    <contour>
      <point x="77.0" y="8.0" type="move" name="x62"/>
    </contour>
    <contour>
      <point x="930.0" y="1282.0" type="move" name="mark0"/>
    </contour>
  </outline>
</glyph>
<glyph name="jadeva" format="1">
  <advance width="1698"/>
  <unicode hex="091C"/>
  <outline>
    <contour>
      <point x="-30" y="1056" type="curve"/>
      <point x="-30" y="1294" type="line"/>
      <point x="1728" y="1294" type="line"/>
      <point x="1728" y="1056" type="line"/>
      <point x="1728" y="1056"/>
      <point x="-30" y="1056"/>
    </contour>
    <contour>
      <point x="785" y="612" type="line"/>
      <point x="822" y="700" type="line"/>
      <point x="926" y="631"/>
      <point x="995" y="526"/>
      <point x="995" y="362" type="curve" smooth="yes"/>
      <point x="995" y="179"/>
      <point x="855" y="32"/>
      <point x="630" y="32" type="curve" smooth="yes"/>
      <point x="389" y="32"/>
      <point x="172" y="170"/>
      <point x="2" y="404" type="curve"/>
      <point x="167" y="647" type="line"/>
      <point x="356" y="406"/>
      <point x="461" y="348"/>
      <point x="549" y="348" type="curve" smooth="yes"/>
      <point x="621" y="348"/>
      <point x="668" y="393"/>
      <point x="668" y="460" type="curve" smooth="yes"/>
      <point x="668" y="544"/>
      <point x="602" y="621"/>
      <point x="438" y="658" type="curve"/>
      <point x="438" y="909" type="line"/>
      <point x="1201" y="909" type="line"/>
      <point x="1201" y="612" type="line"/>
    </contour>
    <contour>
      <point x="1148" y="1096" type="line"/>
      <point x="1514" y="1096" type="line"/>
      <point x="1514" y="0" type="line"/>
      <point x="1148" y="0" type="line"/>
    </contour>
    <contour>
      <point x="1148" y="1294" type="move" name="top"/>
    </contour>
  </outline>
</glyph>
<glyph name="radeva" format="1">
  <advance width="1016"/>
  <unicode hex="0930"/>
  <outline>
    <contour>
      <point x="843" y="97" type="line"/>
      <point x="581" y="-72" type="line"/>
      <point x="108" y="541" type="line" smooth="yes"/>
      <point x="52" y="613"/>
      <point x="26" y="672"/>
      <point x="26" y="735" type="curve" smooth="yes"/>
      <point x="26" y="816"/>
      <point x="85" y="888"/>
      <point x="181" y="888" type="curve" smooth="yes"/>
      <point x="253" y="888"/>
      <point x="304" y="849"/>
      <point x="348" y="792" type="curve" smooth="yes"/>
      <point x="440" y="671" type="line"/>
      <point x="422" y="650" type="line"/>
    </contour>
    <contour>
      <point x="341" y="721" type="line"/>
      <point x="484" y="765"/>
      <point x="527" y="828"/>
      <point x="527" y="947" type="curve" smooth="yes"/>
      <point x="527" y="1116" type="line"/>
      <point x="893" y="1116" type="line"/>
      <point x="893" y="890" type="line" smooth="yes"/>
      <point x="893" y="698"/>
      <point x="764" y="511"/>
      <point x="554" y="425" type="curve"/>
    </contour>
    <contour>
      <point x="-30" y="1056" type="curve"/>
      <point x="-30" y="1294" type="line"/>
      <point x="1046" y="1294" type="line"/>
      <point x="1046" y="1056" type="line"/>
      <point x="1046" y="1056"/>
      <point x="-30" y="1056"/>
    </contour>
    <contour>
      <point x="482" y="56" type="move" name="btm"/>
    </contour>
    <contour>
      <point x="527" y="1294" type="move" name="top"/>
    </contour>
  </outline>
</glyph>
<glyph name="avagrahadeva" format="1">
  <advance width="1211"/>
  <unicode hex="093D"/>
  <outline>
    <contour>
      <point x="1055" y="358" type="curve" smooth="yes"/>
      <point x="1055" y="133"/>
      <point x="884" y="-2"/>
      <point x="636" y="-2" type="curve" smooth="yes"/>
      <point x="451" y="-2"/>
      <point x="260" y="44"/>
      <point x="75" y="160" type="curve"/>
      <point x="145" y="431" type="line"/>
      <point x="310" y="323"/>
      <point x="440" y="275"/>
      <point x="545" y="275" type="curve" smooth="yes"/>
      <point x="648" y="275"/>
      <point x="713" y="317"/>
      <point x="713" y="392" type="curve" smooth="yes"/>
      <point x="713" y="463"/>
      <point x="682" y="500"/>
      <point x="489" y="649" type="curve" smooth="yes"/>
      <point x="294" y="799"/>
      <point x="230" y="887"/>
      <point x="230" y="1026" type="curve" smooth="yes"/>
      <point x="230" y="1177"/>
      <point x="345" y="1294"/>
      <point x="599" y="1294" type="curve" smooth="yes"/>
      <point x="1033" y="1294" type="line"/>
      <point x="1033" y="1056" type="line"/>
      <point x="702" y="1056" type="line" smooth="yes"/>
      <point x="624" y="1056"/>
      <point x="594" y="1023"/>
      <point x="593" y="972" type="curve" smooth="yes"/>
      <point x="592" y="928"/>
      <point x="630" y="892"/>
      <point x="781" y="778" type="curve" smooth="yes"/>
      <point x="984" y="624"/>
      <point x="1055" y="513"/>
    </contour>
  </outline>
</glyph>
<glyph name="fourdeva" format="1">
  <advance width="1229"/>
  <unicode hex="096A"/>
  <outline>
    <contour>
      <point x="-8" y="1126" type="line"/>
      <point x="211" y="1333" type="line"/>
      <point x="728" y="903" type="line" smooth="yes"/>
      <point x="1010" y="668"/>
      <point x="1078" y="523"/>
      <point x="1078" y="360" type="curve" smooth="yes"/>
      <point x="1078" y="179"/>
      <point x="926" y="13"/>
      <point x="650" y="13" type="curve" smooth="yes"/>
      <point x="384" y="13"/>
      <point x="200" y="186"/>
      <point x="200" y="398" type="curve" smooth="yes"/>
      <point x="200" y="532"/>
      <point x="249" y="660"/>
      <point x="495" y="877" type="curve" smooth="yes"/>
      <point x="1019" y="1339" type="line"/>
      <point x="1252" y="1139" type="line"/>
      <point x="705" y="646" type="line" smooth="yes"/>
      <point x="533" y="491"/>
      <point x="515" y="428"/>
      <point x="515" y="367" type="curve" smooth="yes"/>
      <point x="515" y="302"/>
      <point x="558" y="266"/>
      <point x="626" y="266" type="curve" smooth="yes"/>
      <point x="704" y="266"/>
      <point x="763" y="316"/>
      <point x="763" y="396" type="curve" smooth="yes"/>
      <point x="763" y="464"/>
      <point x="718" y="538"/>
      <point x="565" y="662" type="curve" smooth="yes"/>
    </contour>
  </outline>
</glyph>
<glyph name="emdash.deva" format="1">
  <advance width="1956"/>
  <unicode hex="2014"/>
  <outline>
    <contour>
      <point x="100" y="373" type="line"/>
      <point x="100" y="621" type="line"/>
      <point x="1806" y="621" type="line"/>
      <point x="1806" y="373" type="line"/>
    </contour>
  </outline>
</glyph>
<glyph name="dhaprehalfdeva" format="1">
  <advance width="948"/>
  <outline>
    <contour>
      <point x="810" y="627" type="line"/>
      <point x="799" y="626" type="line" smooth="yes"/>
      <point x="643" y="612"/>
      <point x="587" y="553"/>
      <point x="587" y="498" type="curve" smooth="yes"/>
      <point x="587" y="451"/>
      <point x="632" y="417"/>
      <point x="699" y="417" type="curve" smooth="yes"/>
      <point x="845" y="417"/>
      <point x="1006" y="512"/>
      <point x="1125" y="670" type="curve"/>
      <point x="1305" y="405" type="line"/>
      <point x="1159" y="237"/>
      <point x="985" y="124"/>
      <point x="740" y="124" type="curve" smooth="yes"/>
      <point x="432" y="124"/>
      <point x="256" y="319"/>
      <point x="256" y="537" type="curve" smooth="yes"/>
      <point x="256" y="714"/>
      <point x="383" y="913"/>
      <point x="713" y="913" type="curve" smooth="yes"/>
      <point x="719" y="913" type="line"/>
    </contour>
    <contour>
      <point x="328" y="674" type="curve"/>
      <point x="110" y="737"/>
      <point x="-9" y="875"/>
      <point x="-9" y="1047" type="curve" smooth="yes"/>
      <point x="-9" y="1207"/>
      <point x="131" y="1344"/>
      <point x="402" y="1344" type="curve" smooth="yes"/>
      <point x="503" y="1344"/>
      <point x="569" y="1334"/>
      <point x="629" y="1319" type="curve"/>
      <point x="611" y="1102" type="line"/>
      <point x="567" y="1109"/>
      <point x="543" y="1112"/>
      <point x="495" y="1112" type="curve" smooth="yes"/>
      <point x="412" y="1112"/>
      <point x="358" y="1061"/>
      <point x="358" y="1003" type="curve" smooth="yes"/>
      <point x="358" y="929"/>
      <point x="428" y="857"/>
      <point x="582" y="858" type="curve"/>
      <point x="582" y="858"/>
      <point x="328" y="674"/>
    </contour>
  </outline>
</glyph>
<glyph name="hanadeva" format="1">
  <advance width="1527"/>
  <outline>
    <contour>
      <point x="433" y="36" type="curve" smooth="yes"/>
      <point x="433" y="-109"/>
      <point x="509" y="-215"/>
      <point x="746" y="-413" type="curve"/>
      <point x="541" y="-569" type="line"/>
      <point x="249" y="-340"/>
      <point x="134" y="-140"/>
      <point x="134" y="104" type="curve" smooth="yes"/>
      <point x="134" y="317"/>
      <point x="312" y="584"/>
      <point x="752" y="584" type="curve" smooth="yes"/>
      <point x="1226" y="584"/>
      <point x="1465" y="383"/>
      <point x="1465" y="70" type="curve" smooth="yes"/>
      <point x="1465" y="-366" type="line"/>
      <point x="1148" y="-366" type="line"/>
      <point x="1148" y="81" type="line" smooth="yes"/>
      <point x="1148" y="234"/>
      <point x="1056" y="319"/>
      <point x="764" y="319" type="curve" smooth="yes"/>
      <point x="554" y="319"/>
      <point x="433" y="191"/>
    </contour>
    <contour>
      <point x="1557" y="1056" type="line"/>
      <point x="-30" y="1056" type="line"/>
      <point x="-30" y="1294" type="line"/>
      <point x="1557" y="1294" type="line"/>
    </contour>
    <contour>
      <point x="990" y="1066" type="line"/>
      <point x="1355" y="1066" type="line"/>
      <point x="1355" y="696" type="line"/>
      <point x="529" y="696" type="line" smooth="yes"/>
      <point x="435" y="696"/>
      <point x="396" y="658"/>
      <point x="396" y="608" type="curve" smooth="yes"/>
      <point x="396" y="557"/>
      <point x="441" y="527"/>
      <point x="536" y="506" type="curve"/>
      <point x="536" y="506"/>
      <point x="292" y="331"/>
      <point x="292" y="331" type="curve"/>
      <point x="122" y="434"/>
      <point x="42" y="547"/>
      <point x="42" y="683" type="curve" smooth="yes"/>
      <point x="42" y="822"/>
      <point x="154" y="934"/>
      <point x="378" y="934" type="curve" smooth="yes"/>
      <point x="1029" y="934" type="line"/>
      <point x="990" y="881" type="line"/>
    </contour>
    <contour>
      <point x="1351.0" y="200.0" type="line"/>
      <point x="1351.0" y="-47.0" type="line"/>
      <point x="947.0" y="-47.0" type="line"/>
      <point x="997.0" y="4.0" type="line"/>
      <point x="997.0" y="-121.0" type="line" smooth="yes"/>
      <point x="997.0" y="-204.0"/>
      <point x="961.0" y="-253.0"/>
      <point x="889.0" y="-253.0" type="curve" smooth="yes"/>
      <point x="848.0" y="-253.0"/>
      <point x="796" y="-221"/>
      <point x="741" y="-166" type="curve" smooth="yes"/>
      <point x="670" y="-95"/>
      <point x="609.0" y="4.0"/>
      <point x="610.0" y="79.0" type="curve" smooth="yes"/>
      <point x="611.0" y="156.0"/>
      <point x="658.0" y="200.0"/>
      <point x="769.0" y="200.0" type="curve" smooth="yes"/>
    </contour>
    <contour>
      <point x="990" y="1294" type="move" name="top"/>
    </contour>
    <contour>
      <point x="1148" y="-366" type="move" name="btm"/>
    </contour>
  </outline>
</glyph>
<glyph name="haraudeva" format="1">
  <advance width="1326"/>
  <outline>
    <contour>
      <point x="980" y="375" type="line"/>
      <point x="842" y="7" type="line"/>
      <point x="581" y="79" type="line"/>
      <point x="712" y="451" type="line"/>
    </contour>
    <contour>
      <point x="1356" y="1056" type="line"/>
      <point x="-30" y="1056" type="line"/>
      <point x="-30" y="1294" type="line"/>
      <point x="1356" y="1294" type="line"/>
    </contour>
    <contour>
      <point x="802" y="1066" type="line"/>
      <point x="1167" y="1066" type="line"/>
      <point x="1167" y="696" type="line"/>
      <point x="529" y="696" type="line" smooth="yes"/>
      <point x="435" y="696"/>
      <point x="396" y="658"/>
      <point x="396" y="608" type="curve" smooth="yes"/>
      <point x="396" y="557"/>
      <point x="441" y="527"/>
      <point x="536" y="506" type="curve"/>
      <point x="536" y="506"/>
      <point x="292" y="331"/>
      <point x="292" y="331" type="curve"/>
      <point x="122" y="434"/>
      <point x="42" y="547"/>
      <point x="42" y="683" type="curve" smooth="yes"/>
      <point x="42" y="822"/>
      <point x="154" y="934"/>
      <point x="378" y="934" type="curve" smooth="yes"/>
      <point x="841" y="934" type="line"/>
      <point x="802" y="881" type="line"/>
    </contour>
    <contour>
      <point x="159" y="390"/>
      <point x="367" y="579"/>
      <point x="729" y="579" type="curve" smooth="yes"/>
      <point x="1081" y="579"/>
      <point x="1285" y="416"/>
      <point x="1285" y="220" type="curve" smooth="yes"/>
      <point x="1285" y="138"/>
      <point x="1273" y="88"/>
      <point x="1241" y="11" type="curve"/>
      <point x="959" y="61" type="line"/>
      <point x="980" y="105"/>
      <point x="993" y="152"/>
      <point x="993" y="201" type="curve" smooth="yes"/>
      <point x="993" y="287"/>
      <point x="939" y="340"/>
      <point x="768" y="340" type="curve" smooth="yes"/>
      <point x="572" y="340"/>
      <point x="501" y="229"/>
      <point x="501" y="132" type="curve" smooth="yes"/>
      <point x="501" y="9"/>
      <point x="608" y="-66"/>
      <point x="957" y="-119" type="curve"/>
      <point x="863" y="-355" type="line"/>
      <point x="411" y="-293"/>
      <point x="159" y="-111"/>
      <point x="159" y="171" type="curve" smooth="yes"/>
    </contour>
    <component base="uvowelsigndeva" xOffset="1249" yOffset="-139"/>
  </outline>
</glyph>
<glyph name="harrvocalicdeva" format="1">
  <advance width="1333"/>
  <outline>
    <contour>
      <point x="1260" y="94" type="curve"/>
      <point x="1113" y="94" type="line" smooth="yes"/>
      <point x="1049" y="94"/>
      <point x="1002" y="55"/>
      <point x="1002" y="14" type="curve" smooth="yes"/>
      <point x="1002" y="-22"/>
      <point x="1035" y="-45"/>
      <point x="1091" y="-45" type="curve" smooth="yes"/>
      <point x="1145" y="-45"/>
      <point x="1180" y="-41"/>
      <point x="1274" y="-17" type="curve"/>
      <point x="1312" y="-194" type="line"/>
      <point x="1216" y="-215"/>
      <point x="1162" y="-218"/>
      <point x="1081" y="-218" type="curve" smooth="yes"/>
      <point x="832" y="-218"/>
      <point x="689" y="-108"/>
      <point x="689" y="34" type="curve" smooth="yes"/>
      <point x="689" y="159"/>
      <point x="831" y="256"/>
      <point x="1023" y="256" type="curve" smooth="yes"/>
      <point x="1028" y="256"/>
      <point x="1034" y="256"/>
      <point x="1039" y="256" type="curve"/>
      <point x="972" y="221" type="line"/>
      <point x="972" y="280"/>
      <point x="903" y="328"/>
      <point x="737" y="328" type="curve" smooth="yes"/>
      <point x="572" y="328"/>
      <point x="474" y="225"/>
      <point x="474" y="98" type="curve" smooth="yes"/>
      <point x="474" y="-27"/>
      <point x="538" y="-138"/>
      <point x="796" y="-307" type="curve"/>
      <point x="621" y="-484" type="line"/>
      <point x="316" y="-306"/>
      <point x="158" y="-90"/>
      <point x="158" y="144" type="curve" smooth="yes"/>
      <point x="158" y="377"/>
      <point x="366" y="579"/>
      <point x="714" y="579" type="curve" smooth="yes"/>
      <point x="1066" y="579"/>
      <point x="1269" y="397"/>
      <point x="1269" y="219" type="curve" smooth="yes"/>
      <point x="1269" y="167"/>
      <point x="1265" y="130"/>
    </contour>
    <contour>
      <point x="1363" y="1056" type="line"/>
      <point x="-30" y="1056" type="line"/>
      <point x="-30" y="1294" type="line"/>
      <point x="1363" y="1294" type="line"/>
    </contour>
    <contour>
      <point x="682" y="1066" type="line"/>
      <point x="1047" y="1066" type="line"/>
      <point x="1047" y="696" type="line"/>
      <point x="529" y="696" type="line" smooth="yes"/>
      <point x="435" y="696"/>
      <point x="396" y="658"/>
      <point x="396" y="608" type="curve" smooth="yes"/>
      <point x="396" y="557"/>
      <point x="441" y="527"/>
      <point x="536" y="506" type="curve"/>
      <point x="536" y="506"/>
      <point x="292" y="331"/>
      <point x="292" y="331" type="curve"/>
      <point x="122" y="434"/>
      <point x="42" y="547"/>
      <point x="42" y="683" type="curve" smooth="yes"/>
      <point x="42" y="822"/>
      <point x="154" y="934"/>
      <point x="378" y="934" type="curve" smooth="yes"/>
      <point x="721" y="934" type="line"/>
      <point x="682" y="881" type="line"/>
    </contour>
    <contour>
      <point x="1385" y="-470" type="line"/>
      <point x="1318" y="-491"/>
      <point x="1238" y="-509"/>
      <point x="1148" y="-509" type="curve" smooth="yes"/>
      <point x="948" y="-509"/>
      <point x="851" y="-398"/>
      <point x="851" y="-291" type="curve" smooth="yes"/>
      <point x="851" y="-175"/>
      <point x="965" y="-61"/>
      <point x="1198" y="-61" type="curve"/>
      <point x="1247" y="-181" type="line"/>
      <point x="1139" y="-181"/>
      <point x="1083" y="-228"/>
      <point x="1083" y="-278" type="curve" smooth="yes"/>
      <point x="1083" y="-314"/>
      <point x="1109" y="-344"/>
      <point x="1176" y="-344" type="curve" smooth="yes"/>
      <point x="1230" y="-344"/>
      <point x="1270" y="-336"/>
      <point x="1350" y="-309" type="curve"/>
    </contour>
  </outline>
</glyph>
<glyph name="hayadeva" format="1">
  <advance width="1986"/>
  <outline>
    <contour>
      <point x="453" y="75" type="curve" smooth="yes"/>
      <point x="453" y="-50"/>
      <point x="511" y="-157"/>
      <point x="768" y="-365" type="curve"/>
      <point x="555" y="-523" type="line"/>
      <point x="262" y="-293"/>
      <point x="150" y="-80"/>
      <point x="150" y="134" type="curve" smooth="yes"/>
      <point x="150" y="363"/>
      <point x="316" y="577"/>
      <point x="711" y="577" type="curve" smooth="yes"/>
      <point x="1066" y="577"/>
      <point x="1211" y="393"/>
      <point x="1211" y="258" type="curve" smooth="yes"/>
      <point x="1211" y="136"/>
      <point x="1129" y="52"/>
      <point x="923" y="-8" type="curve"/>
      <point x="925" y="80" type="line"/>
      <point x="988" y="-5"/>
      <point x="1044" y="-34"/>
      <point x="1158" y="-34" type="curve" smooth="yes"/>
      <point x="1302" y="-34"/>
      <point x="1429" y="53"/>
      <point x="1482" y="183" type="curve"/>
      <point x="1482" y="-300" type="line"/>
      <point x="1427" y="-318"/>
      <point x="1381" y="-324"/>
      <point x="1271" y="-324" type="curve" smooth="yes"/>
      <point x="973" y="-324"/>
      <point x="706" y="-137"/>
      <point x="589" y="138" type="curve"/>
      <point x="589" y="144" type="line"/>
      <point x="803" y="164"/>
      <point x="885" y="197"/>
      <point x="885" y="246" type="curve" smooth="yes"/>
      <point x="885" y="291"/>
      <point x="847" y="329"/>
      <point x="724" y="329" type="curve" smooth="yes"/>
      <point x="555" y="329"/>
      <point x="453" y="225"/>
    </contour>
    <contour>
      <point x="2016" y="1056" type="line"/>
      <point x="-30" y="1056" type="line"/>
      <point x="-30" y="1294" type="line"/>
      <point x="2016" y="1294" type="line"/>
    </contour>
    <contour>
      <point x="803" y="1066" type="line"/>
      <point x="1168" y="1066" type="line"/>
      <point x="1168" y="696" type="line"/>
      <point x="529" y="696" type="line" smooth="yes"/>
      <point x="435" y="696"/>
      <point x="396" y="658"/>
      <point x="396" y="608" type="curve" smooth="yes"/>
      <point x="396" y="557"/>
      <point x="441" y="527"/>
      <point x="536" y="506" type="curve"/>
      <point x="536" y="506"/>
      <point x="292" y="331"/>
      <point x="292" y="331" type="curve"/>
      <point x="122" y="434"/>
      <point x="42" y="547"/>
      <point x="42" y="683" type="curve" smooth="yes"/>
      <point x="42" y="822"/>
      <point x="154" y="934"/>
      <point x="378" y="934" type="curve" smooth="yes"/>
      <point x="842" y="934" type="line"/>
      <point x="803" y="881" type="line"/>
    </contour>
    <contour>
      <point x="1436" y="1096" type="line"/>
      <point x="1802" y="1096" type="line"/>
      <point x="1802" y="-506" type="line"/>
      <point x="1436" y="-506" type="line"/>
    </contour>
    <contour>
      <point x="1436" y="1294" type="move" name="top"/>
    </contour>
    <contour>
      <point x="1436" y="-506" type="move" name="btm"/>
    </contour>
  </outline>
</glyph>
<glyph name="iivowelsign3deva" format="1">
  <advance width="683"/>
  <outline>
    <contour>
      <point x="84" y="1239" type="curve"/>
      <point x="-149" y="1431"/>
      <point x="-375" y="1519"/>
      <point x="-570" y="1519" type="curve" smooth="yes"/>
      <point x="-702" y="1519"/>
      <point x="-761" y="1446"/>
      <point x="-761" y="1374" type="curve" smooth="yes"/>
      <point x="-761" y="1321"/>
      <point x="-743" y="1282"/>
      <point x="-724" y="1250" type="curve"/>
      <point x="-1075" y="1250" type="line"/>
      <point x="-1101" y="1326"/>
      <point x="-1112" y="1386"/>
      <point x="-1112" y="1457" type="curve" smooth="yes"/>
      <point x="-1112" y="1646"/>
      <point x="-971" y="1825"/>
      <point x="-638" y="1825" type="curve" smooth="yes"/>
      <point x="-258" y="1825"/>
      <point x="142" y="1642"/>
      <point x="521" y="1239" type="curve"/>
      <point x="521" y="1239"/>
      <point x="84" y="1239"/>
    </contour>
    <component base="aavowelsigndeva"/>
  </outline>
</glyph>
<glyph name="ivowelsign02deva" format="1">
  <advance width="683"/>
  <outline>
    <contour>
      <point x="133" y="1254" type="curve"/>
      <point x="133" y="1338" type="line" smooth="yes"/>
      <point x="133" y="1602"/>
      <point x="338" y="1824"/>
      <point x="783" y="1824" type="curve" smooth="yes"/>
      <point x="1080" y="1824"/>
      <point x="1407" y="1757"/>
      <point x="1617" y="1682" type="curve"/>
      <point x="1547" y="1434" type="line"/>
      <point x="1377" y="1474"/>
      <point x="1121" y="1529"/>
      <point x="841" y="1529" type="curve" smooth="yes"/>
      <point x="587" y="1529"/>
      <point x="499" y="1433"/>
      <point x="499" y="1309" type="curve" smooth="yes"/>
      <point x="499" y="1254" type="line"/>
      <point x="499" y="1254"/>
      <point x="133" y="1254"/>
    </contour>
    <component base="aavowelsigndeva"/>
  </outline>
</glyph>
<glyph name="japrehalfdeva" format="1">
  <advance width="1201"/>
  <outline>
    <contour>
      <point x="784" y="590" type="line"/>
      <point x="821" y="680" type="line"/>
      <point x="928" y="611"/>
      <point x="994" y="506"/>
      <point x="994" y="362" type="curve" smooth="yes"/>
      <point x="994" y="179"/>
      <point x="854" y="32"/>
      <point x="629" y="32" type="curve" smooth="yes"/>
      <point x="398" y="32"/>
      <point x="186" y="166"/>
      <point x="6" y="410" type="curve"/>
      <point x="166" y="647" type="line"/>
      <point x="355" y="404"/>
      <point x="465" y="342"/>
      <point x="553" y="342" type="curve" smooth="yes"/>
      <point x="625" y="342"/>
      <point x="672" y="386"/>
      <point x="672" y="453" type="curve" smooth="yes"/>
      <point x="672" y="529"/>
      <point x="611" y="599"/>
      <point x="437" y="636" type="curve"/>
      <point x="437" y="887" type="line"/>
      <point x="1475" y="887" type="line"/>
      <point x="1425" y="590" type="line"/>
    </contour>
    <contour>
      <point x="-30" y="1056" type="curve"/>
      <point x="-30" y="1294" type="line"/>
      <point x="1231" y="1294" type="line"/>
      <point x="1231" y="1056" type="line"/>
      <point x="1231" y="1056"/>
      <point x="-30" y="1056"/>
    </contour>
  </outline>
</glyph>
<glyph name="jaraprehalfdeva" format="1">
  <advance width="1205"/>
  <outline>
    <contour>
      <point x="788" y="590" type="line"/>
      <point x="825" y="678" type="line"/>
      <point x="934" y="621"/>
      <point x="998" y="505"/>
      <point x="998" y="402" type="curve" smooth="yes"/>
      <point x="998" y="239"/>
      <point x="848" y="72"/>
      <point x="628" y="72" type="curve" smooth="yes"/>
      <point x="400" y="72"/>
      <point x="202" y="190"/>
      <point x="23" y="435" type="curve"/>
      <point x="182" y="667" type="line"/>
      <point x="359" y="434"/>
      <point x="462" y="379"/>
      <point x="557" y="379" type="curve" smooth="yes"/>
      <point x="629" y="379"/>
      <point x="676" y="422"/>
      <point x="676" y="483" type="curve" smooth="yes"/>
      <point x="676" y="545"/>
      <point x="616" y="609"/>
      <point x="441" y="636" type="curve"/>
      <point x="441" y="887" type="line"/>
      <point x="1479" y="887" type="line"/>
      <point x="1429" y="590" type="line"/>
    </contour>
    <contour>
      <point x="1512" y="490" type="line"/>
      <point x="674" y="-267" type="line"/>
      <point x="466" y="-67" type="line"/>
      <point x="1381" y="755" type="line"/>
    </contour>
    <contour>
      <point x="-30" y="1056" type="curve"/>
      <point x="-30" y="1294" type="line"/>
      <point x="1235" y="1294" type="line"/>
      <point x="1235" y="1056" type="line"/>
      <point x="1235" y="1056"/>
      <point x="-30" y="1056"/>
    </contour>
  </outline>
</glyph>
<glyph name="jhaprehalfdevaNEP" format="1">
  <advance width="1654"/>
  <outline>
    <contour>
      <point x="1278" y="334" type="curve"/>
      <point x="1270" y="831" type="line"/>
      <point x="1312" y="841"/>
      <point x="1385" y="853"/>
      <point x="1499" y="853" type="curve" smooth="yes"/>
      <point x="1696" y="853"/>
      <point x="1863" y="789"/>
      <point x="2000" y="656" type="curve"/>
      <point x="1942" y="416" type="line"/>
      <point x="1815" y="523"/>
      <point x="1693" y="560"/>
      <point x="1583" y="560" type="curve" smooth="yes"/>
      <point x="1444" y="560"/>
      <point x="1355" y="485"/>
    </contour>
    <contour>
      <point x="1301" y="1056" type="line"/>
      <point x="1301" y="1294" type="line"/>
      <point x="1684" y="1294" type="line"/>
      <point x="1684" y="1056" type="line"/>
    </contour>
    <component base="bhadeva"/>
  </outline>
</glyph>
<glyph name="nabhadeva" format="1">
  <advance width="2051"/>
  <outline>
    <contour>
      <point x="906" y="696" type="line"/>
      <point x="906" y="399" type="line"/>
      <point x="442" y="399" type="line"/>
      <point x="492" y="450" type="line"/>
      <point x="492" y="215" type="line" smooth="yes"/>
      <point x="492" y="122"/>
      <point x="445" y="66"/>
      <point x="372" y="66" type="curve" smooth="yes"/>
      <point x="320" y="66"/>
      <point x="266" y="93"/>
      <point x="204" y="155" type="curve" smooth="yes"/>
      <point x="129" y="230"/>
      <point x="44" y="376"/>
      <point x="44" y="515" type="curve" smooth="yes"/>
      <point x="44" y="632"/>
      <point x="103" y="696"/>
      <point x="244" y="696" type="curve" smooth="yes"/>
    </contour>
    <contour>
      <point x="-30" y="1056" type="curve"/>
      <point x="-30" y="1294" type="line"/>
      <point x="664" y="1294" type="line"/>
      <point x="664" y="1056" type="line"/>
      <point x="664" y="1056"/>
      <point x="-30" y="1056"/>
    </contour>
    <component base="bhadeva" xOffset="490"/>
  </outline>
</glyph>
<glyph name="naprehalfdeva" format="1">
  <advance width="724"/>
  <outline>
    <contour>
      <point x="996" y="774" type="line"/>
      <point x="996" y="477" type="line"/>
      <point x="442" y="477" type="line"/>
      <point x="492" y="528" type="line"/>
      <point x="492" y="293" type="line" smooth="yes"/>
      <point x="492" y="200"/>
      <point x="445" y="144"/>
      <point x="372" y="144" type="curve" smooth="yes"/>
      <point x="320" y="144"/>
      <point x="266" y="171"/>
      <point x="204" y="233" type="curve" smooth="yes"/>
      <point x="129" y="308"/>
      <point x="44" y="454"/>
      <point x="44" y="593" type="curve" smooth="yes"/>
      <point x="44" y="710"/>
      <point x="103" y="774"/>
      <point x="244" y="774" type="curve" smooth="yes"/>
    </contour>
    <contour>
      <point x="-30" y="1056" type="curve"/>
      <point x="-30" y="1294" type="line"/>
      <point x="754" y="1294" type="line"/>
      <point x="754" y="1056" type="line"/>
      <point x="754" y="1056"/>
      <point x="-30" y="1056"/>
    </contour>
  </outline>
</glyph>
<glyph name="nnaradeva" format="1">
  <advance width="1854"/>
  <outline>
    <contour>
      <point x="1524" y="253" type="line"/>
      <point x="853" y="-156" type="line"/>
      <point x="674" y="98" type="line"/>
      <point x="1365" y="517" type="line"/>
    </contour>
    <component base="nnadeva"/>
    <contour>
      <point x="1304" y="1294" type="move" name="top"/>
    </contour>
  </outline>
</glyph>
<glyph name="onedevaNEP" format="1">
  <advance width="1145"/>
  <outline>
    <contour>
      <point x="676" y="865" type="line" smooth="yes"/>
      <point x="676" y="971"/>
      <point x="615" y="1041"/>
      <point x="529" y="1041" type="curve" smooth="yes"/>
      <point x="452" y="1041"/>
      <point x="394" y="980"/>
      <point x="394" y="901" type="curve" smooth="yes"/>
      <point x="394" y="805"/>
      <point x="465" y="745"/>
      <point x="570" y="745" type="curve" smooth="yes"/>
      <point x="662" y="745"/>
      <point x="739" y="772"/>
      <point x="810" y="812" type="curve"/>
      <point x="848" y="531" type="line"/>
      <point x="770" y="487"/>
      <point x="699" y="464"/>
      <point x="564" y="464" type="curve" smooth="yes"/>
      <point x="292" y="464"/>
      <point x="78" y="662"/>
      <point x="78" y="909" type="curve" smooth="yes"/>
      <point x="78" y="1126"/>
      <point x="235" y="1314"/>
      <point x="524" y="1314" type="curve" smooth="yes"/>
      <point x="826" y="1314"/>
      <point x="1016" y="1115"/>
      <point x="1016" y="823" type="curve" smooth="yes"/>
      <point x="1016" y="19" type="line"/>
      <point x="676" y="19" type="line"/>
    </contour>
  </outline>
</glyph>
<glyph name="raprehalfdeva" format="1">
  <advance width="569"/>
  <outline>
    <contour>
      <point x="-30" y="1056" type="curve"/>
      <point x="-30" y="1294" type="line"/>
      <point x="599" y="1294" type="line"/>
      <point x="599" y="1056" type="line"/>
      <point x="599" y="1056"/>
      <point x="-30" y="1056"/>
    </contour>
    <contour>
      <point x="938" y="333" type="line"/>
      <point x="818" y="277"/>
      <point x="703" y="255"/>
      <point x="560" y="255" type="curve" smooth="yes"/>
      <point x="403" y="255"/>
      <point x="226" y="303"/>
      <point x="47" y="404" type="curve"/>
      <point x="117" y="675" type="line"/>
      <point x="251" y="610"/>
      <point x="378" y="579"/>
      <point x="496" y="579" type="curve" smooth="yes"/>
      <point x="619" y="579"/>
      <point x="712" y="595"/>
      <point x="828" y="655" type="curve"/>
    </contour>
  </outline>
</glyph>
<glyph name="rvocalicvowelsignlowdeva" format="1">
  <advance width="0"/>
  <outline>
    <contour>
      <point x="-106" y="-497" type="line"/>
      <point x="-181" y="-519"/>
      <point x="-262" y="-532"/>
      <point x="-357" y="-532" type="curve" smooth="yes"/>
      <point x="-590" y="-532"/>
      <point x="-794" y="-421"/>
      <point x="-794" y="-227" type="curve" smooth="yes"/>
      <point x="-794" y="-62"/>
      <point x="-630" y="53"/>
      <point x="-384" y="53" type="curve" smooth="yes"/>
      <point x="-313" y="53"/>
      <point x="-262" y="50"/>
      <point x="-184" y="43" type="curve"/>
      <point x="-184" y="-137" type="line"/>
      <point x="-224" y="-137"/>
      <point x="-280" y="-137"/>
      <point x="-322" y="-137" type="curve" smooth="yes"/>
      <point x="-440" y="-137"/>
      <point x="-499" y="-189"/>
      <point x="-499" y="-249" type="curve" smooth="yes"/>
      <point x="-499" y="-297"/>
      <point x="-452" y="-334"/>
      <point x="-364" y="-334" type="curve" smooth="yes"/>
      <point x="-296" y="-334"/>
      <point x="-231" y="-320"/>
      <point x="-143" y="-289" type="curve"/>
    </contour>
    <contour>
      <point x="-452" y="0" type="move" name="_btm"/>
    </contour>
  </outline>
</glyph>
<glyph name="shacaprehalfdeva" format="1">
  <advance width="1046"/>
  <outline>
    <contour>
      <point x="201" y="314" type="line"/>
      <point x="44" y="575" type="line"/>
      <point x="331" y="720" type="line" smooth="yes"/>
      <point x="575" y="843"/>
      <point x="634" y="908"/>
      <point x="634" y="977" type="curve" smooth="yes"/>
      <point x="634" y="1029"/>
      <point x="603" y="1066"/>
      <point x="552" y="1066" type="curve" smooth="yes"/>
      <point x="488" y="1066"/>
      <point x="461" y="1028"/>
      <point x="461" y="981" type="curve" smooth="yes"/>
      <point x="461" y="880"/>
      <point x="638" y="792"/>
      <point x="1251" y="690" type="curve"/>
      <point x="1298" y="429" type="line"/>
      <point x="403" y="517"/>
      <point x="144" y="772"/>
      <point x="144" y="1024" type="curve" smooth="yes"/>
      <point x="144" y="1179"/>
      <point x="272" y="1327"/>
      <point x="526" y="1327" type="curve" smooth="yes"/>
      <point x="786" y="1327"/>
      <point x="930" y="1164"/>
      <point x="930" y="972" type="curve" smooth="yes"/>
      <point x="930" y="778"/>
      <point x="798" y="619"/>
      <point x="479" y="456" type="curve" smooth="yes"/>
    </contour>
    <contour>
      <point x="377" y="-60" type="curve"/>
      <point x="236" y="153" type="line"/>
      <point x="809" y="458" type="line"/>
      <point x="945" y="253" type="line"/>
      <point x="945" y="253"/>
      <point x="377" y="-60"/>
    </contour>
    <contour>
      <point x="1146" y="526" type="curve"/>
      <point x="1251" y="689" type="line"/>
      <point x="1420" y="498" type="line"/>
      <point x="1408" y="5"/>
      <point x="1172" y="-244"/>
      <point x="868" y="-244" type="curve" smooth="yes"/>
      <point x="671" y="-244"/>
      <point x="519" y="-108"/>
      <point x="519" y="78" type="curve" smooth="yes"/>
      <point x="519" y="205"/>
      <point x="597" y="325"/>
      <point x="788" y="414" type="curve"/>
      <point x="910" y="234" type="line"/>
      <point x="833" y="199"/>
      <point x="801" y="144"/>
      <point x="800" y="97" type="curve" smooth="yes"/>
      <point x="800" y="46"/>
      <point x="828" y="13"/>
      <point x="880" y="13" type="curve" smooth="yes"/>
      <point x="999" y="13"/>
      <point x="1128" y="158"/>
    </contour>
  </outline>
</glyph>
<glyph name="shaladeva" format="1">
  <advance width="2527"/>
  <outline>
    <contour>
      <point x="201" y="314" type="line"/>
      <point x="44" y="575" type="line"/>
      <point x="331" y="720" type="line" smooth="yes"/>
      <point x="575" y="843"/>
      <point x="634" y="908"/>
      <point x="634" y="977" type="curve" smooth="yes"/>
      <point x="634" y="1029"/>
      <point x="603" y="1066"/>
      <point x="552" y="1066" type="curve" smooth="yes"/>
      <point x="488" y="1066"/>
      <point x="461" y="1028"/>
      <point x="461" y="981" type="curve" smooth="yes"/>
      <point x="461" y="870"/>
      <point x="698" y="777"/>
      <point x="1281" y="687" type="curve"/>
      <point x="1207" y="442" type="line"/>
      <point x="422" y="527"/>
      <point x="144" y="762"/>
      <point x="144" y="1024" type="curve" smooth="yes"/>
      <point x="144" y="1179"/>
      <point x="272" y="1327"/>
      <point x="526" y="1327" type="curve" smooth="yes"/>
      <point x="786" y="1327"/>
      <point x="930" y="1164"/>
      <point x="930" y="972" type="curve" smooth="yes"/>
      <point x="930" y="778"/>
      <point x="798" y="619"/>
      <point x="479" y="456" type="curve" smooth="yes"/>
    </contour>
    <contour>
      <point x="1977" y="1096" type="line"/>
      <point x="2343" y="1096" type="line"/>
      <point x="2343" y="0" type="line"/>
      <point x="1977" y="0" type="line"/>
    </contour>
    <contour>
      <point x="1085" y="1056" type="curve"/>
      <point x="1085" y="1294" type="line"/>
      <point x="2557" y="1294" type="line"/>
      <point x="2557" y="1056" type="line"/>
      <point x="2557" y="1056"/>
      <point x="1085" y="1056"/>
    </contour>
    <contour>
      <point x="1936" y="640" type="curve"/>
      <point x="1722" y="463" type="line"/>
      <point x="1634" y="566"/>
      <point x="1565" y="606"/>
      <point x="1464" y="606" type="curve" smooth="yes"/>
      <point x="1344" y="606"/>
      <point x="1280" y="528"/>
      <point x="1280" y="430" type="curve" smooth="yes"/>
      <point x="1280" y="319"/>
      <point x="1347" y="227"/>
      <point x="1444" y="118" type="curve"/>
      <point x="1198" y="-18" type="line"/>
      <point x="1074" y="109"/>
      <point x="951" y="317"/>
      <point x="951" y="505" type="curve" smooth="yes"/>
      <point x="951" y="739"/>
      <point x="1117" y="910"/>
      <point x="1382" y="910" type="curve" smooth="yes"/>
      <point x="1593" y="910"/>
      <point x="1743" y="826"/>
    </contour>
    <contour>
      <point x="2100" y="1002" type="line"/>
      <point x="2100" y="585" type="line"/>
      <point x="1668" y="185" type="line"/>
      <point x="1441" y="393" type="line"/>
    </contour>
    <contour>
      <point x="1977" y="1294" type="move" name="top"/>
    </contour>
  </outline>
</glyph>
<glyph name="shaprehalfdeva" format="1">
  <advance width="1043"/>
  <outline>
    <contour>
      <point x="623" y="387" type="line"/>
      <point x="941" y="122" type="line"/>
      <point x="733" y="-69" type="line"/>
      <point x="354" y="258" type="line"/>
    </contour>
    <contour>
      <point x="989" y="479"/>
      <point x="547" y="181"/>
      <point x="272" y="181" type="curve" smooth="yes"/>
      <point x="126" y="181"/>
      <point x="70" y="270"/>
      <point x="70" y="379" type="curve" smooth="yes"/>
      <point x="70" y="503"/>
      <point x="156" y="621"/>
      <point x="276" y="621" type="curve" smooth="yes"/>
      <point x="363" y="621"/>
      <point x="428" y="577"/>
      <point x="513" y="499" type="curve"/>
      <point x="399" y="518" type="line"/>
      <point x="555" y="571"/>
      <point x="686" y="730"/>
      <point x="686" y="886" type="curve" smooth="yes"/>
      <point x="686" y="984"/>
      <point x="618" y="1066"/>
      <point x="522" y="1066" type="curve" smooth="yes"/>
      <point x="471" y="1066"/>
      <point x="438" y="1031"/>
      <point x="438" y="987" type="curve" smooth="yes"/>
      <point x="438" y="913"/>
      <point x="520" y="845"/>
      <point x="768" y="821" type="curve"/>
      <point x="685" y="610" type="line"/>
      <point x="271" y="668"/>
      <point x="129" y="835"/>
      <point x="129" y="1029" type="curve" smooth="yes"/>
      <point x="129" y="1181"/>
      <point x="246" y="1327"/>
      <point x="488" y="1327" type="curve" smooth="yes"/>
      <point x="784" y="1327"/>
      <point x="989" y="1132"/>
      <point x="989" y="838" type="curve" smooth="yes"/>
    </contour>
  </outline>
</glyph>
<glyph name="shaprehalfdevaMAR" format="1">
  <advance width="1081"/>
  <outline>
    <contour>
      <point x="682" y="337" type="line"/>
      <point x="1000" y="72" type="line"/>
      <point x="792" y="-119" type="line"/>
      <point x="413" y="208" type="line"/>
    </contour>
    <contour>
      <point x="437" y="1096" type="line"/>
      <point x="803" y="1096" type="line"/>
      <point x="803" y="938" type="line"/>
      <point x="437" y="938" type="line"/>
    </contour>
    <contour>
      <point x="998" y="351"/>
      <point x="612" y="131"/>
      <point x="331" y="131" type="curve" smooth="yes"/>
      <point x="185" y="131"/>
      <point x="126" y="221"/>
      <point x="126" y="330" type="curve" smooth="yes"/>
      <point x="126" y="445"/>
      <point x="215" y="571"/>
      <point x="335" y="571" type="curve" smooth="yes"/>
      <point x="422" y="571"/>
      <point x="487" y="527"/>
      <point x="572" y="449" type="curve"/>
      <point x="458" y="468" type="line"/>
      <point x="596" y="501"/>
      <point x="647" y="570"/>
      <point x="647" y="630" type="curve" smooth="yes"/>
      <point x="647" y="696"/>
      <point x="599" y="739"/>
      <point x="523" y="739" type="curve" smooth="yes"/>
      <point x="386" y="739"/>
      <point x="274" y="691"/>
      <point x="178" y="633" type="curve"/>
      <point x="87" y="903" type="line"/>
      <point x="201" y="947"/>
      <point x="316" y="987"/>
      <point x="543" y="987" type="curve" smooth="yes"/>
      <point x="858" y="987"/>
      <point x="998" y="839"/>
      <point x="998" y="628" type="curve" smooth="yes"/>
    </contour>
    <contour>
      <point x="1111" y="1056" type="line"/>
      <point x="-30" y="1056" type="line"/>
      <point x="-30" y="1294" type="line"/>
      <point x="1111" y="1294" type="line"/>
    </contour>
  </outline>
</glyph>
<glyph name="tanadeva" format="1">
  <advance width="2058"/>
  <outline>
    <contour>
      <point x="1081" y="854" type="line"/>
      <point x="1081" y="557" type="line"/>
      <point x="630" y="557" type="line" smooth="yes"/>
      <point x="487" y="557"/>
      <point x="427" y="490"/>
      <point x="427" y="390" type="curve" smooth="yes"/>
      <point x="427" y="303"/>
      <point x="473" y="207"/>
      <point x="559" y="50" type="curve"/>
      <point x="268" y="-35" type="line"/>
      <point x="152" y="156"/>
      <point x="87" y="328"/>
      <point x="87" y="482" type="curve" smooth="yes"/>
      <point x="87" y="698"/>
      <point x="223" y="854"/>
      <point x="566" y="854" type="curve" smooth="yes"/>
    </contour>
    <contour>
      <point x="-30" y="1056" type="curve"/>
      <point x="-30" y="1294" type="line"/>
      <point x="803" y="1294" type="line"/>
      <point x="803" y="1056" type="line"/>
      <point x="803" y="1056"/>
      <point x="-30" y="1056"/>
    </contour>
    <component base="nadeva" xOffset="720"/>
  </outline>
</glyph>
<glyph name="tharaprehalfdeva" format="1">
  <advance width="956"/>
  <outline>
    <contour>
      <point x="1145" y="281" type="line"/>
      <point x="344" y="-177" type="line"/>
      <point x="167" y="75" type="line"/>
      <point x="977" y="535" type="line"/>
    </contour>
    <component base="thaprehalfdeva"/>
  </outline>
</glyph>
<glyph name="vattullvocalicdeva" format="1">
  <advance width="-1"/>
  <outline>
    <component base="llvocalicvowelsignlowdeva" xOffset="51" yOffset="-258"/>
    <component base="vattulowdeva" yOffset="231"/>
    <contour>
      <point x="-552" y="0" type="move" name="_btm"/>
    </contour>
  </outline>
</glyph>
